{
  "accessors": [
    {
      "bufferView": 2,
      "componentType": 5126,
      "count": 1916,
      "max": [
        4.099999904632568,
        1.7999999523162842,
        10.399999618530273
      ],
      "min": [
        -6.199999809265137,
        0.0,
        5.0
      ],
      "type": "VEC3"
    },
    {
      "bufferView": 2,
      "byteOffset": 22992,
      "componentType": 5126,
      "count": 1916,
      "max": [
        1.0,
        1.0,
        1.0
      ],
      "min": [
        -1.0,
        -1.0,
        -1.0
      ],
      "type": "VEC3"
    },
    {
      "bufferView": 1,
      "componentType": 5126,
      "count": 1916,
      "max": [
        0.9941400289535522,
        0.5
      ],
      "min": [
        0.8457000255584717,
        0.5
      ],
      "type": "VEC2"
    },
    {
      "bufferView": 0,
      "componentType": 5125,
      "count": 4002,
      "type": "SCALAR"
    },
    {
      "bufferView": 2,
      "byteOffset": 45984,
      "componentType": 5126,
      "count": 1176,
      "max": [
        13.600000381469727,
        1.399999976158142,
        10.399999618530273
      ],
      "min": [
        4.099999904632568,
        0.0,
        6.5
      ],
      "type": "VEC3"
    },
    {
      "bufferView": 2,
      "byteOffset": 60096,
      "componentType": 5126,
      "count": 1176,
      "max": [
        1.0,
        1.0,
        1.0
      ],
      "min": [
        -1.0,
        -1.0,
        -1.0
      ],
      "type": "VEC3"
    },
    {
      "bufferView": 1,
      "byteOffset": 15328,
      "componentType": 5126,
      "count": 1176,
      "max": [
        0.9941400289535522,
        0.5
      ],
      "min": [
        0.005859999917447567,
        0.5
      ],
      "type": "VEC2"
    },
    {
      "bufferView": 0,
      "byteOffset": 16008,
      "componentType": 5125,
      "count": 2886,
      "type": "SCALAR"
    }
  ],
  "asset": {
    "extras": {
      "author": "Knuttunk (https://sketchfab.com/knuttunk)",
      "license": "CC-BY-NC-ND-4.0 (http://creativecommons.org/licenses/by-nc-nd/4.0/)",
      "source": "https://sketchfab.com/3d-models/voxel-ibblue-area-walkthrough-070079d1a52640a19b32eb91c8b51519",
      "title": "【Voxel_Ib】Blue Area (walkthrough)"
    },
    "generator": "Sketchfab-12.67.0",
    "version": "2.0"
  },
  "bufferViews": [
    {
      "buffer": 0,
      "byteLength": 27552,
      "name": "floatBufferViews",
      "target": 34963
    },
    {
      "buffer": 0,
      "byteLength": 24736,
      "byteOffset": 27552,
      "byteStride": 8,
      "name": "floatBufferViews",
      "target": 34962
    },
    {
      "buffer": 0,
      "byteLength": 74208,
      "byteOffset": 52288,
      "byteStride": 12,
      "name": "floatBufferViews",
      "target": 34962
    }
  ],
  "buffers": [
    {
      "byteLength": 126496,
      "uri": "scene.bin"
    }
  ],
  "images": [
    {
      "uri": "textures/palette.003_baseColor.png"
    },
    {
      "uri": "textures/palette.002_baseColor.png"
    },
    {
      "uri": "textures/palette.002_emissive.png"
    }
  ],
  "materials": [
    {
      "doubleSided": true,
      "name": "palette.003",
      "pbrMetallicRoughness": {
        "baseColorTexture": {
          "index": 0
        },
        "metallicFactor": 0.0,
        "roughnessFactor": 0.6
      }
    },
    {
      "doubleSided": true,
      "emissiveFactor": [
        1.0,
        1.0,
        1.0
      ],
      "emissiveTexture": {
        "index": 2
      },
      "name": "palette.002",
      "pbrMetallicRoughness": {
        "baseColorTexture": {
          "index": 1
        },
        "metallicFactor": 0.0,
        "roughnessFactor": 0.6
      }
    }
  ],
  "meshes": [
    {
      "name": "Ib Blue Room closed-0_0",
      "primitives": [
        {
          "attributes": {
            "NORMAL": 1,
            "POSITION": 0,
            "TEXCOORD_0": 2
          },
          "indices": 3,
          "material": 1,
          "mode": 4
        }
      ]
    },
    {
      "name": "Ib Blue Room closed-1_0",
      "primitives": [
        {
          "attributes": {
            "NORMAL": 5,
            "POSITION": 4,
            "TEXCOORD_0": 6
          },
          "indices": 7,
          "material": 0,
          "mode": 4
        }
      ]
    }
  ],
  "nodes": [
    {
      "children": [
        1
      ],
      "matrix": [
        27.061922073364258,
        0.0,
        0.0,
        0.0,
        0.0,
        6.008953795292151e-15,
        -27.061922073364258,
        0.0,
        0.0,
        27.061922073364258,
        6.008953795292151e-15,
        0.0,
        0.0,
        0.0,
        0.0,
        1.0
      ],
      "name": "Sketchfab_model"
    },
    {
      "children": [
        2,
        4,
        6
      ],
      "name": "Root"
    },
    {
      "children": [
        3
      ],
      "matrix": [
        -0.29086000000000006,
        0.9551700000000001,
        -0.05519000000000001,
        0.0,
        -0.7711,
        -0.19988000000000003,
        0.6045200000000001,
        0.0,
        0.5663900000000001,
        0.21839000000000003,
        0.7946700000000001,
        0.0,
        4.076250000000001,
        1.00545,
        5.903860000000001,
        1.0
      ],
      "name": "Lamp"
    },
    {
      "name": "Lamp"
    },
    {
      "children": [
        5
      ],
      "matrix": [
        0.1,
        0.0,
        0.0,
        0.0,
        0.0,
        -0.0,
        0.1,
        0.0,
        0.0,
        -0.1,
        -0.0,
        0.0,
        0.0,
        0.0,
        0.0,
        1.0
      ],
      "name": "Ib Blue Room closed-0"
    },
    {
      "mesh": 0,
      "name": "Ib Blue Room closed-0_0"
    },
    {
      "children": [
        7
      ],
      "matrix": [
        0.1,
        0.0,
        0.0,
        0.0,
        0.0,
        -0.0,
        0.1,
        0.0,
        0.0,
        -0.1,
        -0.0,
        0.0,
        0.0,
        0.0,
        0.0,
        1.0
      ],
      "name": "Ib Blue Room closed-1"
    },
    {
      "mesh": 1,
      "name": "Ib Blue Room closed-1_0"
    }
  ],
  "samplers": [
    {
      "magFilter": 9729,
      "minFilter": 9987,
      "wrapS": 10497,
      "wrapT": 10497
    }
  ],
  "scene": 0,
  "scenes": [
    {
      "name": "Sketchfab_Scene",
      "nodes": [
        0
      ]
    }
  ],
  "textures": [
    {
      "sampler": 0,
      "source": 0
    },
    {
      "sampler": 0,
      "source": 1
    },
    {
      "sampler": 0,
      "source": 2
    }
  ]
}
