{"asset":{"version":"2.0","generator":"THREE.GLTFExporter"},"scenes":[{"nodes":[0]}],"scene":0,"nodes":[{"mesh":0}],"bufferViews":[{"buffer":0,"byteOffset":0,"byteLength":3528,"target":34962,"byteStride":12},{"buffer":0,"byteOffset":3528,"byteLength":588,"target":34963}],"buffers":[{"byteLength":4116,"uri":"data:application/octet-stream;base64,"}],"accessors":[{"bufferView":0,"componentType":5126,"count":294,"max":[10.189696311950684,0.6000000238418579,11.373638153076172],"min":[-7.2103047370910645,0.20000000298023224,-12.626361846923828],"type":"VEC3"},{"bufferView":1,"componentType":5123,"count":294,"max":[293],"min":[0],"type":"SCALAR"}],"materials":[{"pbrMetallicRoughness":{"metallicFactor":0,"roughnessFactor":1}}],"meshes":[{"primitives":[{"mode":4,"attributes":{"POSITION":0},"indices":1,"material":0}]}]}